Jump_normalized_Precision Landing04_filtered_grf
version=1
nRows=22
nColumns=37
inDegrees=yes
endheader
time		1_ground_force_vx		1_ground_force_vy		1_ground_force_vz		1_ground_force_px		1_ground_force_py		1_ground_force_pz		1_ground_torque_x		1_ground_torque_y		1_ground_torque_z		2_ground_force_vx		2_ground_force_vy		2_ground_force_vz		2_ground_force_px		2_ground_force_py		2_ground_force_pz		2_ground_torque_x		2_ground_torque_y		2_ground_torque_z		3_ground_force_vx		3_ground_force_vy		3_ground_force_vz		3_ground_force_px		3_ground_force_py		3_ground_force_pz		3_ground_torque_x		3_ground_torque_y		3_ground_torque_z		4_ground_force_vx		4_ground_force_vy		4_ground_force_vz		4_ground_force_px		4_ground_force_py		4_ground_force_pz		4_ground_torque_x		4_ground_torque_y		4_ground_torque_z		
0.415333		0.000000		0.000000		-0.000000		-0.030732		0.000000		-0.003067		0.000000		-0.000000		-0.000000		-0.000000		0.000000		-0.000000		-0.134152		0.000000		0.385921		-0.000000		0.000000		0.000000		-43.211418		398.940271		-114.753027		0.351789		1.255597		1.895962		2.151966		-19.867663		5.714805		-57.814369		291.871875		-48.253719		-0.289046		1.264312		1.905029		-3.645649		18.404819		-3.042777		
0.418641		0.000000		0.000000		0.000000		-0.030732		0.000000		-0.003067		0.000000		0.000000		-0.000000		0.000000		0.000000		0.000000		-0.134152		0.000000		0.385921		0.000000		-0.000000		0.000000		-44.417970		385.661982		-116.503352		0.351783		1.255640		1.896080		2.180493		-18.932349		5.719193		-55.887513		274.816219		-45.519874		-0.289048		1.264340		1.905045		-3.510842		17.263912		-2.859551		
0.421949		-0.000000		0.000000		0.000000		-0.030732		0.000000		-0.003067		0.000000		0.000000		-0.000000		0.000000		0.000000		0.000000		-0.134152		0.000000		0.385921		0.000000		-0.000000		0.000000		-45.189823		371.910589		-117.522355		0.351770		1.255679		1.896181		2.187933		-18.006640		5.690024		-53.555935		256.089444		-42.496624		-0.289057		1.264368		1.905046		-3.345493		15.997215		-2.654649		
0.425258		-0.000000		0.000000		0.000000		-0.030732		0.000000		-0.003067		0.000000		0.000000		-0.000000		0.000000		0.000000		0.000000		-0.134152		0.000000		0.385921		0.000000		-0.000000		0.000000		-45.439986		357.824835		-117.831132		0.351751		1.255716		1.896259		2.171481		-17.099744		5.630901		-50.771802		235.904231		-39.023974		-0.289069		1.264394		1.905023		-3.147531		14.624592		-2.419244		
0.428566		-0.000000		-0.000000		0.000000		-0.030732		0.000000		-0.003067		0.000000		0.000000		-0.000000		0.000000		0.000000		0.000000		-0.134152		0.000000		0.385921		0.000000		-0.000000		0.000000		-45.094925		343.394122		-117.466779		0.351731		1.255754		1.896311		2.128424		-16.207784		5.544282		-47.401737		214.647405		-34.892508		-0.289077		1.264421		1.904972		-2.910279		13.178508		-2.142265		
0.431874		-0.000000		-0.000000		0.000000		-0.030732		0.000000		-0.003067		-0.000000		0.000000		0.000000		0.000000		-0.000000		0.000000		-0.134152		0.000000		0.385921		0.000000		-0.000000		-0.000000		-44.095649		328.475657		-116.421434		0.351711		1.255795		1.896341		2.056638		-15.320243		5.429935		-43.240004		192.733156		-29.899208		-0.289080		1.264448		1.904889		20.568011		18.709196		9.881235		
0.435182		-0.000000		-0.000000		-0.000000		-0.030732		0.000000		-0.003067		-0.000000		-0.000000		0.000000		-0.000000		-0.000000		-0.000000		-0.134152		0.000000		0.385921		-0.000000		0.000000		-0.000000		-42.422760		312.878054		-114.620040		0.351698		1.255844		1.896349		1.956190		-14.427378		5.285329		-38.081483		170.485184		-23.950719		-0.289075		1.264477		1.904773		18.305920		16.212809		8.711621		
0.438490		0.000000		-0.000000		-0.000000		-0.030732		0.000000		-0.003067		-0.000000		-0.000000		0.000000		-0.000000		-0.000000		-0.000000		-0.134152		0.000000		0.385921		-0.000000		0.000000		-0.000000		-40.095352		296.448528		-111.928614		0.351696		1.255899		1.896334		1.829345		-13.525424		5.106727		-31.846170		148.028364		-17.151294		-0.289062		1.264507		1.904625		16.094288		13.543874		7.562630		
0.441798		0.000000		-0.000000		-0.000000		-0.030732		0.000000		-0.003067		-0.000000		-0.000000		0.000000		-0.000000		-0.000000		-0.000000		-0.134152		0.000000		0.385921		-0.000000		0.000000		-0.000000		-37.153787		279.132780		-108.185474		0.351706		1.255953		1.896295		1.679464		-12.617637		4.890302		-24.708376		125.310967		-9.879678		-0.289048		1.264534		1.904452		13.905509		10.757295		6.424145		
0.445106		0.000000		0.000000		-0.000000		-0.030732		0.000000		-0.003067		-0.000000		-0.000000		0.000000		-0.000000		-0.000000		-0.000000		-0.134152		0.000000		0.385921		-0.000000		0.000000		-0.000000		-33.664154		261.018933		-103.285814		0.351728		1.256001		1.896229		1.510596		-11.712574		4.634692		-17.188346		102.295544		-2.807149		-0.289038		1.264559		1.904263		-0.956783		5.694092		-0.156298		
0.448414		0.000000		0.000000		-0.000000		-0.030732		0.000000		-0.003067		0.000000		-0.000000		-0.000000		-0.000000		0.000000		-0.000000		-0.134152		0.000000		0.385921		-0.000000		0.000000		0.000000		-29.695289		242.272517		-97.185112		0.351760		1.256036		1.896131		1.326177		-10.819763		4.340235		-10.106101		79.225192		3.222833		-0.289039		1.264579		1.904062		-0.541034		4.241126		0.172478		
0.451722		0.000000		0.000000		0.000000		-0.030732		0.000000		-0.003067		0.000000		0.000000		-0.000000		0.000000		0.000000		0.000000		-0.134152		0.000000		0.385921		0.000000		-0.000000		0.000000		-25.337370		223.053845		-89.936014		0.351794		1.256057		1.896005		1.129499		-9.943378		4.009201		-4.384414		56.864450		7.433241		-0.289051		1.264597		1.903860		-0.222037		2.878945		0.376213		
0.455030		-0.000000		0.000000		0.000000		-0.030732		0.000000		-0.003067		0.000000		0.000000		-0.000000		0.000000		0.000000		0.000000		-0.134152		0.000000		0.385921		0.000000		-0.000000		0.000000		-20.705961		203.407161		-81.697202		0.351824		1.256067		1.895851		0.923874		-9.075781		3.645231		-0.720435		36.494311		9.423677		-0.289071		1.264616		1.903662		-0.033150		1.678373		0.433348		
0.458338		-0.000000		0.000000		0.000000		-0.030732		0.000000		-0.003067		0.000000		0.000000		-0.000000		0.000000		0.000000		0.000000		-0.134152		0.000000		0.385921		0.000000		-0.000000		0.000000		-15.934145		183.191717		-72.708682		0.351844		1.256067		1.895667		0.712821		-8.195187		3.252664		0.677053		19.654150		9.321677		-0.289095		1.264638		1.903473		0.024663		0.717800		0.340018		
0.461646		-0.000000		-0.000000		0.000000		-0.030732		0.000000		-0.003067		0.000000		0.000000		-0.000000		0.000000		0.000000		0.000000		-0.134152		0.000000		0.385921		0.000000		-0.000000		-0.000000		-11.170628		162.135011		-63.290367		0.351853		1.256067		1.895456		0.500946		-7.270947		2.838257		0.221344		7.500862		7.785643		-0.289114		1.264663		1.903293		0.003048		0.098295		0.100735		
0.464955		-0.000000		-0.000000		0.000000		-0.030732		0.000000		-0.003067		-0.000000		0.000000		0.000000		0.000000		-0.000000		0.000000		-0.134152		0.000000		0.385921		0.000000		-0.000000		-0.000000		-6.580057		139.982664		-53.767594		0.351854		1.256071		1.895218		0.295029		-6.276360		2.410761		-1.313145		0.342283		5.669475		-0.289125		1.264689		1.903123		0.010048		-0.002774		-0.043658		
0.468263		-0.000000		-0.000000		-0.000000		-0.030732		0.000000		-0.003067		-0.000000		-0.000000		0.000000		-0.000000		-0.000000		-0.000000		-0.134152		0.000000		0.385921		-0.000000		0.000000		-0.000000		-2.361150		116.720955		-44.432818		0.351851		1.256087		1.894950		1.668263		-11.157902		-13.741984		-3.113233		-2.507862		3.716041		-0.289122		1.264713		1.902962		-0.420027		-0.207672		-0.187450		
0.471571		0.000000		-0.000000		-0.000000		-0.030732		0.000000		-0.003067		-0.000000		-0.000000		0.000000		-0.000000		-0.000000		-0.000000		-0.134152		0.000000		0.385921		-0.000000		0.000000		-0.000000		1.253154		92.802658		-35.509387		0.351854		1.256118		1.894662		1.397155		-8.878827		-10.928376		-4.584215		-2.467723		2.362846		-0.289107		1.264729		1.902804		-0.511864		0.010056		-0.203851		
0.474879		0.000000		-0.000000		-0.000000		-0.030732		0.000000		-0.003067		-0.000000		-0.000000		0.000000		-0.000000		-0.000000		-0.000000		-0.134152		0.000000		0.385921		-0.000000		0.000000		-0.000000		4.013301		69.211110		-27.165410		0.351866		1.256161		1.894361		1.080027		-6.679824		-8.115389		-5.438224		-1.063522		1.739539		-0.289080		1.264740		1.902642		-0.372389		0.188935		-0.134263		
0.478187		0.000000		0.000000		-0.000000		-0.030732		0.000000		-0.003067		-0.000000		-0.000000		-0.000000		-0.000000		0.000000		-0.000000		-0.134152		0.000000		0.385921		-0.000000		0.000000		0.000000		5.734634		47.338236		-19.558084		0.351888		1.256212		1.894062		0.394548		-3.678038		-3.241985		-5.666028		0.482696		1.744189		-0.289043		1.264744		1.902473		-0.166995		0.280098		-0.046700		
0.481495		0.000000		0.000000		0.000000		-0.030732		0.000000		-0.003067		0.000000		-0.000000		-0.000000		-0.000000		0.000000		-0.000000		-0.134152		0.000000		0.385921		-0.000000		0.000000		0.000000		6.371369		28.616166		-12.893470		0.351918		1.256261		1.893775		-0.240504		-1.080210		0.486705		-5.434180		1.512297		2.164280		-0.289001		1.264747		1.902295		-0.003118		0.286853		0.017282		
0.484803		0.000000		0.000000		0.000000		-0.030732		0.000000		-0.003067		0.000000		0.000000		-0.000000		0.000000		0.000000		0.000000		-0.134152		0.000000		0.385921		0.000000		-0.000000		0.000000		6.041581		14.165100		-7.439515		0.351953		1.256297		1.893509		-0.186456		-0.437766		0.229822		-4.972625		1.878201		2.768565		-0.288957		1.264751		1.902108		0.076045		0.240029		0.043373		
